<?xml version="1.0" encoding="UTF-8" standalone="no"?>
<!-- Created with Inkscape (http://www.inkscape.org/) -->

<svg
   xmlns:dc="http://purl.org/dc/elements/1.1/"
   xmlns:cc="http://creativecommons.org/ns#"
   xmlns:rdf="http://www.w3.org/1999/02/22-rdf-syntax-ns#"
   xmlns:svg="http://www.w3.org/2000/svg"
   xmlns="http://www.w3.org/2000/svg"
   xmlns:sodipodi="http://sodipodi.sourceforge.net/DTD/sodipodi-0.dtd"
   xmlns:inkscape="http://www.inkscape.org/namespaces/inkscape"
   width="210mm"
   height="297mm"
   viewBox="0 0 210 297"
   version="1.1"
   id="svg8"
   inkscape:version="0.92.4 (5da689c313, 2019-01-14)"
   sodipodi:docname="logiconrev.svg">
  <defs
     id="defs2" />
  <sodipodi:namedview
     id="base"
     pagecolor="#ffffff"
     bordercolor="#666666"
     borderopacity="1.0"
     inkscape:pageopacity="0.0"
     inkscape:pageshadow="2"
     inkscape:zoom="0.35"
     inkscape:cx="31.177595"
     inkscape:cy="594.3942"
     inkscape:document-units="mm"
     inkscape:current-layer="layer1"
     showgrid="false"
     inkscape:snap-global="false"
     inkscape:window-width="1360"
     inkscape:window-height="745"
     inkscape:window-x="-8"
     inkscape:window-y="-8"
     inkscape:window-maximized="1" />
  <metadata
     id="metadata5">
    <rdf:RDF>
      <cc:Work
         rdf:about="">
        <dc:format>image/svg+xml</dc:format>
        <dc:type
           rdf:resource="http://purl.org/dc/dcmitype/StillImage" />
        <dc:title></dc:title>
      </cc:Work>
    </rdf:RDF>
  </metadata>
  <g
     inkscape:label="Capa 1"
     inkscape:groupmode="layer"
     id="layer1">
    <g
       id="g941"
       transform="matrix(0.36110931,0,0,0.36110931,67.362165,106.81891)">
      <rect
         ry="5.2916632"
         y="95.916664"
         x="3.7797649"
         height="160.2619"
         width="206.375"
         id="rect831"
         style="opacity:1;fill:#333333;fill-opacity:1;stroke:#000000;stroke-width:5;stroke-miterlimit:4;stroke-dasharray:none;stroke-opacity:1" />
      <g
         id="g933">
        <g
           id="g927">
          <path
             sodipodi:nodetypes="ccccc"
             inkscape:connector-curvature="0"
             id="path833"
             d="m 8.3154647,176.04761 -10e-6,-27.97024 51.4047703,-46.86904 h 59.720245 z"
             inkscape:transform-center-y="5.3730785"
             inkscape:transform-center-x="9.071425"
             style="opacity:1;fill:#999999;fill-opacity:1;stroke:#999999;stroke-width:5;stroke-miterlimit:4;stroke-dasharray:none;stroke-opacity:1" />
          <path
             sodipodi:nodetypes="ccccc"
             inkscape:connector-curvature="0"
             id="path844"
             d="M 9.0714291,243.32738 8.315482,213.08928 152.70239,100.45239 l 45.35713,0.75595 z"
             inkscape:transform-center-y="-1.0179227e-06"
             inkscape:transform-center-x="-3.0285714e-06"
             style="opacity:1;fill:#999999;fill-opacity:1;stroke:#999999;stroke-width:5;stroke-miterlimit:4;stroke-dasharray:none;stroke-opacity:1" />
        </g>
        <path
           style="opacity:1;fill:#999999;fill-opacity:1;stroke:#999999;stroke-width:5;stroke-miterlimit:4;stroke-dasharray:none;stroke-opacity:1"
           d="m 93.478665,251.32972 111.827225,-73.7702 0.0459,28.14578 -68.47853,45.84583 z"
           id="rect849"
           inkscape:connector-curvature="0"
           sodipodi:nodetypes="ccccc" />
      </g>
    </g>
    <g
       id="g923"
       transform="matrix(0.36110931,0,0,0.36110931,61.607915,106.81891)">
      <g
         transform="translate(-8.2555522)"
         id="g912">
        <rect
           style="opacity:1;fill:#333333;fill-opacity:1;stroke:#000000;stroke-width:5;stroke-miterlimit:4;stroke-dasharray:none;stroke-opacity:1"
           id="rect815"
           width="100.54166"
           height="162.67982"
           x="-115.66071"
           y="96.672615"
           rx="3.6000001"
           ry="15.119059" />
        <ellipse
           style="opacity:1;fill:#1a1a1a;fill-opacity:1;stroke:#000000;stroke-width:5;stroke-miterlimit:4;stroke-dasharray:none;stroke-opacity:1"
           id="path817"
           cx="-65.389885"
           cy="219.51488"
           rx="35.907738"
           ry="34.395832" />
        <path
           style="opacity:1;fill:#000000;fill-opacity:1;stroke:#000000;stroke-width:53.9932518;stroke-miterlimit:4;stroke-dasharray:none;stroke-opacity:1"
           d="m -266.27333,548.93112 c -35.05004,-21.37136 -21.63503,-71.53293 19.13047,-71.53293 16.37296,0 28.97206,7.60256 35.54141,21.44644 15.99626,33.70962 -22.97565,69.41291 -54.67188,50.08649 z"
           id="path827"
           inkscape:connector-curvature="0"
           transform="scale(0.26458333)" />
      </g>
      <g
         transform="matrix(0.45723434,0,0,0.96974433,47.249339,-219.77565)"
         id="g897">
        <g
           id="g887">
          <path
             inkscape:connector-curvature="0"
             d="m -254.35185,266.40311 c -0.18793,0.0676 -0.37499,0.13731 -0.56378,0.20273 -0.22388,0.0776 -0.455,0.13775 -0.67419,0.22618 -0.22996,0.0928 -0.88807,0.43268 -0.67074,0.31643 6.63775,-3.55026 4.29397,-2.48223 2.63008,-0.98853 -1.59513,1.57273 -2.63246,3.50408 -3.36891,5.53599 -0.45055,1.69022 -0.80839,3.47841 -0.63503,5.22972 0.041,0.41448 0.13779,0.82251 0.2067,1.23377 0.60573,2.82435 2.14396,5.30637 3.82455,7.67898 2.02688,2.6305 4.28651,5.09587 6.51946,7.57437 2.21047,2.44433 4.37398,4.92874 6.42981,7.488 1.89783,2.14392 3.19097,4.63162 4.28241,7.19662 0.43016,1.3381 1.06063,2.76654 0.96585,4.19811 -0.0174,0.2633 -0.0923,0.52054 -0.13847,0.7808 -0.2502,0.64822 -0.34787,1.02103 -0.76087,1.60457 -1.83727,2.59595 -5.60778,3.98129 -8.20987,5.38508 -2.67375,1.19079 -5.58206,1.72361 -8.44716,2.33768 -2.75575,0.63618 -5.58865,0.79143 -8.41434,0.87273 -3.75304,0.0404 -7.50846,0.0804 -11.26085,-0.0104 -3.17968,-0.0268 -6.33797,-0.35986 -9.49626,-0.6636 -0.98315,-0.11754 -1.95959,-0.25873 -2.93195,-0.43648 0,0 4.48051,-2.91198 4.48051,-2.91198 v 0 c 0.94156,0.17387 1.88704,0.31879 2.83699,0.44801 3.09439,0.35476 6.19353,0.7017 9.31633,0.72984 3.77483,0.0741 7.5522,0.0384 11.32597,-0.072 2.81695,-0.12713 5.635,-0.32508 8.38165,-0.96384 2.86041,-0.60162 5.75361,-1.18129 8.37338,-2.46463 -6.60194,3.64211 -2.36526,1.58767 -0.93269,-0.18051 0.4348,-0.53667 0.52757,-0.84182 0.803,-1.44803 0.0622,-0.22366 0.15493,-0.44181 0.18647,-0.67097 0.17948,-1.30384 -0.42971,-2.86373 -0.76796,-4.10409 -0.98517,-2.56127 -2.2778,-5.0002 -4.1514,-7.1093 -2.00874,-2.57564 -4.14007,-5.06576 -6.34614,-7.49697 -2.26236,-2.48134 -4.54667,-4.95717 -6.59998,-7.59327 -1.75543,-2.41071 -3.2629,-4.96976 -3.98356,-7.83182 -0.0896,-0.42691 -0.21012,-0.84917 -0.26871,-1.28072 -0.24238,-1.78554 0.10172,-3.64014 0.52395,-5.37512 0.69392,-2.08066 1.7235,-4.05013 3.22886,-5.73255 2.32634,-2.36152 5.52067,-3.78512 8.70518,-4.91447 0,0 -4.39829,3.20962 -4.39829,3.20962 z"
             id="path872"
             style="opacity:1;fill:#550022;fill-opacity:1;stroke:#9b3333;stroke-width:1.71063769;stroke-miterlimit:4;stroke-dasharray:none;stroke-opacity:1" />
        </g>
        <path
           inkscape:connector-curvature="0"
           d="m -267.44255,266.40311 c 0.18793,0.0676 0.37499,0.13731 0.56378,0.20273 0.22388,0.0776 0.455,0.13775 0.67419,0.22618 0.22996,0.0928 0.88807,0.43268 0.67074,0.31643 -6.63775,-3.55026 -4.29397,-2.48223 -2.63008,-0.98853 1.59513,1.57273 2.63246,3.50408 3.36891,5.53599 0.45055,1.69022 0.80839,3.47841 0.63503,5.22972 -0.041,0.41448 -0.13779,0.82251 -0.2067,1.23377 -0.60573,2.82435 -2.14396,5.30637 -3.82455,7.67898 -2.02688,2.6305 -4.28651,5.09587 -6.51946,7.57437 -2.21047,2.44433 -4.37398,4.92874 -6.42981,7.488 -1.89783,2.14392 -3.19097,4.63162 -4.28241,7.19662 -0.43016,1.3381 -1.06063,2.76654 -0.96585,4.19811 0.0174,0.2633 0.0923,0.52054 0.13847,0.7808 0.2502,0.64822 0.34787,1.02103 0.76087,1.60457 1.83727,2.59595 5.60778,3.98129 8.20987,5.38508 2.67375,1.19079 5.58206,1.72361 8.44716,2.33768 2.75575,0.63618 5.58866,0.79143 8.41434,0.87273 3.75304,0.0404 7.50846,0.0804 11.26085,-0.0104 3.17968,-0.0268 6.33797,-0.35986 9.49626,-0.6636 0.98315,-0.11754 1.95959,-0.25873 2.93195,-0.43648 0,0 -4.48051,-2.91198 -4.48051,-2.91198 v 0 c -0.94156,0.17387 -1.88704,0.31879 -2.83699,0.44801 -3.09439,0.35476 -6.19353,0.7017 -9.31633,0.72984 -3.77483,0.0741 -7.5522,0.0384 -11.32597,-0.072 -2.81695,-0.12713 -5.63499,-0.32508 -8.38165,-0.96384 -2.86041,-0.60162 -5.75361,-1.18129 -8.37338,-2.46463 6.60194,3.64211 2.36526,1.58767 0.93269,-0.18051 -0.4348,-0.53667 -0.52757,-0.84182 -0.803,-1.44803 -0.0622,-0.22366 -0.15493,-0.44181 -0.18647,-0.67097 -0.17948,-1.30384 0.42971,-2.86373 0.76796,-4.10409 0.98517,-2.56127 2.2778,-5.0002 4.1514,-7.1093 2.00874,-2.57564 4.14007,-5.06576 6.34614,-7.49697 2.26236,-2.48134 4.54667,-4.95717 6.59998,-7.59327 1.75543,-2.41071 3.2629,-4.96976 3.98356,-7.83182 0.0896,-0.42691 0.21012,-0.84917 0.26871,-1.28072 0.24238,-1.78554 -0.10172,-3.64014 -0.52395,-5.37512 -0.69392,-2.08066 -1.72349,-4.05013 -3.22886,-5.73255 -2.32634,-2.36152 -5.52067,-3.78512 -8.70518,-4.91447 0,0 4.39829,3.20962 4.39829,3.20962 z"
           id="path878"
           style="opacity:1;fill:#550022;fill-opacity:1;stroke:#9b3333;stroke-width:1.71063769;stroke-miterlimit:4;stroke-dasharray:none;stroke-opacity:1" />
        <path
           style="opacity:1;fill:#550022;fill-opacity:1;stroke:#e9afaf;stroke-width:6.36313915;stroke-miterlimit:4;stroke-dasharray:none;stroke-opacity:1"
           d="m -268.34,318.40605 c -2.47996,-0.32789 -7.71302,-1.54365 -8.64437,-2.00827 -0.36117,-0.18018 -0.8743,-0.81315 -1.14031,-1.40659 -0.41631,-0.92878 -0.41071,-1.34382 0.0401,-2.98096 1.08456,-3.93819 3.25173,-7.00381 11.34165,-16.04355 2.1602,-2.41382 4.46038,-5.16471 5.1115,-6.11307 l 1.18387,-1.72431 1.32982,1.91791 c 0.73139,1.05485 2.57718,3.29371 4.10175,4.97524 8.46641,9.33816 11.42227,13.52685 12.3301,17.47272 0.30753,1.33671 0.27627,1.80227 -0.17572,2.61702 -0.71044,1.28065 -1.17582,1.49275 -5.4888,2.50159 -3.16071,0.73932 -4.46754,0.85548 -10.74768,0.9553 -3.93219,0.0625 -8.09108,-0.0109 -9.24197,-0.16303 z"
           id="path884"
           inkscape:connector-curvature="0" />
      </g>
    </g>
    <g
       id="g961"
       transform="matrix(0.36110931,0,0,0.36110931,203.55826,106.81891)">
      <g
         id="g949"
         transform="translate(-8.2555522)">
        <rect
           ry="15.119059"
           rx="3.6000001"
           y="96.672615"
           x="-115.66071"
           height="162.67982"
           width="100.54166"
           id="rect943"
           style="opacity:1;fill:#333333;fill-opacity:1;stroke:#000000;stroke-width:5;stroke-miterlimit:4;stroke-dasharray:none;stroke-opacity:1" />
        <ellipse
           ry="34.395832"
           rx="35.907738"
           cy="219.51488"
           cx="-65.389885"
           id="ellipse945"
           style="opacity:1;fill:#1a1a1a;fill-opacity:1;stroke:#000000;stroke-width:5;stroke-miterlimit:4;stroke-dasharray:none;stroke-opacity:1" />
        <path
           transform="scale(0.26458333)"
           inkscape:connector-curvature="0"
           id="path947"
           d="m -266.27333,548.93112 c -35.05004,-21.37136 -21.63503,-71.53293 19.13047,-71.53293 16.37296,0 28.97206,7.60256 35.54141,21.44644 15.99626,33.70962 -22.97565,69.41291 -54.67188,50.08649 z"
           style="opacity:1;fill:#000000;fill-opacity:1;stroke:#000000;stroke-width:53.9932518;stroke-miterlimit:4;stroke-dasharray:none;stroke-opacity:1" />
      </g>
      <g
         id="g959"
         transform="matrix(0.45723434,0,0,0.96974433,47.249339,-219.77565)">
        <g
           id="g953">
          <path
             style="opacity:1;fill:#550022;fill-opacity:1;stroke:#9b3333;stroke-width:1.71063769;stroke-miterlimit:4;stroke-dasharray:none;stroke-opacity:1"
             id="path951"
             d="m -254.35185,266.40311 c -0.18793,0.0676 -0.37499,0.13731 -0.56378,0.20273 -0.22388,0.0776 -0.455,0.13775 -0.67419,0.22618 -0.22996,0.0928 -0.88807,0.43268 -0.67074,0.31643 6.63775,-3.55026 4.29397,-2.48223 2.63008,-0.98853 -1.59513,1.57273 -2.63246,3.50408 -3.36891,5.53599 -0.45055,1.69022 -0.80839,3.47841 -0.63503,5.22972 0.041,0.41448 0.13779,0.82251 0.2067,1.23377 0.60573,2.82435 2.14396,5.30637 3.82455,7.67898 2.02688,2.6305 4.28651,5.09587 6.51946,7.57437 2.21047,2.44433 4.37398,4.92874 6.42981,7.488 1.89783,2.14392 3.19097,4.63162 4.28241,7.19662 0.43016,1.3381 1.06063,2.76654 0.96585,4.19811 -0.0174,0.2633 -0.0923,0.52054 -0.13847,0.7808 -0.2502,0.64822 -0.34787,1.02103 -0.76087,1.60457 -1.83727,2.59595 -5.60778,3.98129 -8.20987,5.38508 -2.67375,1.19079 -5.58206,1.72361 -8.44716,2.33768 -2.75575,0.63618 -5.58865,0.79143 -8.41434,0.87273 -3.75304,0.0404 -7.50846,0.0804 -11.26085,-0.0104 -3.17968,-0.0268 -6.33797,-0.35986 -9.49626,-0.6636 -0.98315,-0.11754 -1.95959,-0.25873 -2.93195,-0.43648 0,0 4.48051,-2.91198 4.48051,-2.91198 v 0 c 0.94156,0.17387 1.88704,0.31879 2.83699,0.44801 3.09439,0.35476 6.19353,0.7017 9.31633,0.72984 3.77483,0.0741 7.5522,0.0384 11.32597,-0.072 2.81695,-0.12713 5.635,-0.32508 8.38165,-0.96384 2.86041,-0.60162 5.75361,-1.18129 8.37338,-2.46463 -6.60194,3.64211 -2.36526,1.58767 -0.93269,-0.18051 0.4348,-0.53667 0.52757,-0.84182 0.803,-1.44803 0.0622,-0.22366 0.15493,-0.44181 0.18647,-0.67097 0.17948,-1.30384 -0.42971,-2.86373 -0.76796,-4.10409 -0.98517,-2.56127 -2.2778,-5.0002 -4.1514,-7.1093 -2.00874,-2.57564 -4.14007,-5.06576 -6.34614,-7.49697 -2.26236,-2.48134 -4.54667,-4.95717 -6.59998,-7.59327 -1.75543,-2.41071 -3.2629,-4.96976 -3.98356,-7.83182 -0.0896,-0.42691 -0.21012,-0.84917 -0.26871,-1.28072 -0.24238,-1.78554 0.10172,-3.64014 0.52395,-5.37512 0.69392,-2.08066 1.7235,-4.05013 3.22886,-5.73255 2.32634,-2.36152 5.52067,-3.78512 8.70518,-4.91447 0,0 -4.39829,3.20962 -4.39829,3.20962 z"
             inkscape:connector-curvature="0" />
        </g>
        <path
           style="opacity:1;fill:#550022;fill-opacity:1;stroke:#9b3333;stroke-width:1.71063769;stroke-miterlimit:4;stroke-dasharray:none;stroke-opacity:1"
           id="path955"
           d="m -267.44255,266.40311 c 0.18793,0.0676 0.37499,0.13731 0.56378,0.20273 0.22388,0.0776 0.455,0.13775 0.67419,0.22618 0.22996,0.0928 0.88807,0.43268 0.67074,0.31643 -6.63775,-3.55026 -4.29397,-2.48223 -2.63008,-0.98853 1.59513,1.57273 2.63246,3.50408 3.36891,5.53599 0.45055,1.69022 0.80839,3.47841 0.63503,5.22972 -0.041,0.41448 -0.13779,0.82251 -0.2067,1.23377 -0.60573,2.82435 -2.14396,5.30637 -3.82455,7.67898 -2.02688,2.6305 -4.28651,5.09587 -6.51946,7.57437 -2.21047,2.44433 -4.37398,4.92874 -6.42981,7.488 -1.89783,2.14392 -3.19097,4.63162 -4.28241,7.19662 -0.43016,1.3381 -1.06063,2.76654 -0.96585,4.19811 0.0174,0.2633 0.0923,0.52054 0.13847,0.7808 0.2502,0.64822 0.34787,1.02103 0.76087,1.60457 1.83727,2.59595 5.60778,3.98129 8.20987,5.38508 2.67375,1.19079 5.58206,1.72361 8.44716,2.33768 2.75575,0.63618 5.58866,0.79143 8.41434,0.87273 3.75304,0.0404 7.50846,0.0804 11.26085,-0.0104 3.17968,-0.0268 6.33797,-0.35986 9.49626,-0.6636 0.98315,-0.11754 1.95959,-0.25873 2.93195,-0.43648 0,0 -4.48051,-2.91198 -4.48051,-2.91198 v 0 c -0.94156,0.17387 -1.88704,0.31879 -2.83699,0.44801 -3.09439,0.35476 -6.19353,0.7017 -9.31633,0.72984 -3.77483,0.0741 -7.5522,0.0384 -11.32597,-0.072 -2.81695,-0.12713 -5.63499,-0.32508 -8.38165,-0.96384 -2.86041,-0.60162 -5.75361,-1.18129 -8.37338,-2.46463 6.60194,3.64211 2.36526,1.58767 0.93269,-0.18051 -0.4348,-0.53667 -0.52757,-0.84182 -0.803,-1.44803 -0.0622,-0.22366 -0.15493,-0.44181 -0.18647,-0.67097 -0.17948,-1.30384 0.42971,-2.86373 0.76796,-4.10409 0.98517,-2.56127 2.2778,-5.0002 4.1514,-7.1093 2.00874,-2.57564 4.14007,-5.06576 6.34614,-7.49697 2.26236,-2.48134 4.54667,-4.95717 6.59998,-7.59327 1.75543,-2.41071 3.2629,-4.96976 3.98356,-7.83182 0.0896,-0.42691 0.21012,-0.84917 0.26871,-1.28072 0.24238,-1.78554 -0.10172,-3.64014 -0.52395,-5.37512 -0.69392,-2.08066 -1.72349,-4.05013 -3.22886,-5.73255 -2.32634,-2.36152 -5.52067,-3.78512 -8.70518,-4.91447 0,0 4.39829,3.20962 4.39829,3.20962 z"
           inkscape:connector-curvature="0" />
        <path
           inkscape:connector-curvature="0"
           id="path957"
           d="m -268.34,318.40605 c -2.47996,-0.32789 -7.71302,-1.54365 -8.64437,-2.00827 -0.36117,-0.18018 -0.8743,-0.81315 -1.14031,-1.40659 -0.41631,-0.92878 -0.41071,-1.34382 0.0401,-2.98096 1.08456,-3.93819 3.25173,-7.00381 11.34165,-16.04355 2.1602,-2.41382 4.46038,-5.16471 5.1115,-6.11307 l 1.18387,-1.72431 1.32982,1.91791 c 0.73139,1.05485 2.57718,3.29371 4.10175,4.97524 8.46641,9.33816 11.42227,13.52685 12.3301,17.47272 0.30753,1.33671 0.27627,1.80227 -0.17572,2.61702 -0.71044,1.28065 -1.17582,1.49275 -5.4888,2.50159 -3.16071,0.73932 -4.46754,0.85548 -10.74768,0.9553 -3.93219,0.0625 -8.09108,-0.0109 -9.24197,-0.16303 z"
           style="opacity:1;fill:#550022;fill-opacity:1;stroke:#e9afaf;stroke-width:6.36313915;stroke-miterlimit:4;stroke-dasharray:none;stroke-opacity:1" />
      </g>
    </g>
  </g>
</svg>
